<?xml version="1.0" encoding="UTF-8" standalone="no"?>
<!DOCTYPE svg PUBLIC "-//W3C//DTD SVG 1.1//EN"
 "http://www.w3.org/Graphics/SVG/1.1/DTD/svg11.dtd">
<!-- Generated by graphviz version 2.43.0 (0)
 -->
<!-- Title: %3 Pages: 1 -->
<svg width="1068pt" height="255pt"
 viewBox="0.00 0.00 1068.00 255.48" xmlns="http://www.w3.org/2000/svg" xmlns:xlink="http://www.w3.org/1999/xlink">
<g id="graph0" class="graph" transform="scale(1 1) rotate(0) translate(36 219.48)">
<title>%3</title>
<polygon fill="dimgray" stroke="transparent" points="-36,36 -36,-219.48 1032,-219.48 1032,36 -36,36"/>
<text text-anchor="middle" x="498" y="-168.28" font-family="Helvetica,sans-Serif" font-size="14.00">Sweep&#39;s Plan &amp; Progress</text>
<!-- start -->
<g id="node1" class="node">
<title>start</title>
</g>
<!-- c1f6c65e&#45;39ea&#45;4b97&#45;a385&#45;b655419d3d79 -->
<g id="node3" class="node">
<title>c1f6c65e&#45;39ea&#45;4b97&#45;a385&#45;b655419d3d79</title>
<ellipse fill="#ee0000" stroke="black" cx="232.5" cy="-117.61" rx="179.71" ry="26.74"/>
<text text-anchor="middle" x="232.5" y="-121.41" font-family="Helvetica,sans-Serif" font-size="14.00">✗ Refactor</text>
<text text-anchor="middle" x="232.5" y="-106.41" font-family="Helvetica,sans-Serif" font-size="14.00">src/components/DelegateVotes.jsx</text>
</g>
<!-- start&#45;&gt;c1f6c65e&#45;39ea&#45;4b97&#45;a385&#45;b655419d3d79 -->
<g id="edge3" class="edge">
<title>start&#45;&gt;c1f6c65e&#45;39ea&#45;4b97&#45;a385&#45;b655419d3d79</title>
<path fill="none" stroke="black" d="M1.17,-117.61C4.55,-117.61 20.52,-117.61 42.62,-117.61"/>
<polygon fill="black" stroke="black" points="42.82,-121.11 52.82,-117.61 42.82,-114.11 42.82,-121.11"/>
<text text-anchor="middle" x="26.95" y="-124.41" font-family="Helvetica,sans-Serif" font-size="14.00">Start</text>
</g>
<!-- end -->
<g id="node2" class="node">
<title>end</title>
</g>
<!-- 8d417252&#45;7c14&#45;488c&#45;a30c&#45;4484d57bf0cb -->
<g id="node4" class="node">
<title>8d417252&#45;7c14&#45;488c&#45;a30c&#45;4484d57bf0cb</title>
<ellipse fill="yellow" stroke="black" cx="692.5" cy="-117.61" rx="245.23" ry="26.74"/>
<text text-anchor="middle" x="692.5" y="-121.41" font-family="Helvetica,sans-Serif" font-size="14.00">⋯ Test</text>
<text text-anchor="middle" x="692.5" y="-106.41" font-family="Helvetica,sans-Serif" font-size="14.00">src/tests/DelegateVotesSubcomponent1.test.jsx</text>
</g>
<!-- c1f6c65e&#45;39ea&#45;4b97&#45;a385&#45;b655419d3d79&#45;&gt;8d417252&#45;7c14&#45;488c&#45;a30c&#45;4484d57bf0cb -->
<g id="edge2" class="edge">
<title>c1f6c65e&#45;39ea&#45;4b97&#45;a385&#45;b655419d3d79&#45;&gt;8d417252&#45;7c14&#45;488c&#45;a30c&#45;4484d57bf0cb</title>
<path fill="none" stroke="black" d="M412.19,-117.61C420.43,-117.61 428.66,-117.61 436.9,-117.61"/>
<polygon fill="black" stroke="black" points="436.95,-121.11 446.95,-117.61 436.95,-114.11 436.95,-121.11"/>
</g>
<!-- a0b1ad0e&#45;bf70&#45;4722&#45;abdf&#45;cc695cf7ebd4 -->
<g id="node5" class="node">
<title>a0b1ad0e&#45;bf70&#45;4722&#45;abdf&#45;cc695cf7ebd4</title>
<ellipse fill="#ee0000" stroke="black" cx="232.5" cy="-26.87" rx="179.71" ry="26.74"/>
<text text-anchor="middle" x="232.5" y="-30.67" font-family="Helvetica,sans-Serif" font-size="14.00">✗ Modify</text>
<text text-anchor="middle" x="232.5" y="-15.67" font-family="Helvetica,sans-Serif" font-size="14.00">src/components/DelegateVotes.jsx</text>
</g>
<!-- c1f6c65e&#45;39ea&#45;4b97&#45;a385&#45;b655419d3d79&#45;&gt;a0b1ad0e&#45;bf70&#45;4722&#45;abdf&#45;cc695cf7ebd4 -->
<g id="edge1" class="edge">
<title>c1f6c65e&#45;39ea&#45;4b97&#45;a385&#45;b655419d3d79&#45;&gt;a0b1ad0e&#45;bf70&#45;4722&#45;abdf&#45;cc695cf7ebd4</title>
<path fill="none" stroke="black" d="M232.5,-90.47C232.5,-82.16 232.5,-72.82 232.5,-63.95"/>
<polygon fill="black" stroke="black" points="236,-63.83 232.5,-53.83 229,-63.83 236,-63.83"/>
</g>
<!-- 8d417252&#45;7c14&#45;488c&#45;a30c&#45;4484d57bf0cb&#45;&gt;end -->
<g id="edge4" class="edge">
<title>8d417252&#45;7c14&#45;488c&#45;a30c&#45;4484d57bf0cb&#45;&gt;end</title>
<path fill="none" stroke="black" d="M938.15,-117.61C958.3,-117.61 974.77,-117.61 984.8,-117.61"/>
<polygon fill="black" stroke="black" points="984.89,-121.11 994.89,-117.61 984.89,-114.11 984.89,-121.11"/>
<text text-anchor="middle" x="966.43" y="-124.41" font-family="Helvetica,sans-Serif" font-size="14.00">Finish</text>
</g>
</g>
</svg>
